<?xml version="1.0" encoding="utf-8"?>
<!-- Generator: Adobe Illustrator 22.1.0, SVG Export Plug-In . SVG Version: 6.00 Build 0)  -->
<svg version="1.1" id="Layer_1" xmlns="http://www.w3.org/2000/svg" xmlns:xlink="http://www.w3.org/1999/xlink" x="0px" y="0px"
	 viewBox="0 0 600 600" style="enable-background:new 0 0 600 600;" xml:space="preserve">
<style type="text/css">
	.st0{fill:#35E8D3;}
	.st1{fill:#00FFEB;}
</style>
<g>
	<g>
		<path class="st0" d="M175.2,313.6c0-9.6,7.3-16.3,17.9-16.3c3.4,0,6.5,0.9,8.7,2c0.8,0.4,1.5,0.8,2,0.8c0.6,0,0.8-3.8,0.8-4.4
			c0-2.4-3.7-4.6-9.8-4.6c-4.2,0-7.2,0.7-10,1.4c-1.1,0.3-2.4,0.4-2.8-1.1l-2.5-6.5c-0.4-1.4,0-2.4,1.4-2.7
			c4.4-1.1,9.8-2.1,16.8-2.1c14.9,0,22.6,6.5,22.6,22.3v24.4c0,1.5-0.6,2.1-2.1,2.1h-8.6c-1.9,0-2.8-0.2-3.4-1.2
			c-0.4-0.7-0.8-1.1-1.4-1.1c-0.8,0-1.4,0.5-3.1,1.2c-1.8,1-5.1,2-8.9,2C182.2,329.9,175.2,323.2,175.2,313.6z M205.6,313.6
			c0-3.6-3.5-6-9.2-6c-5.8,0-9.2,2.4-9.2,6c0,3.6,3.5,6,9.2,6C202.1,319.6,205.6,317.2,205.6,313.6z"/>
		<path class="st0" d="M228,264.1c0-1.5,0.6-2.2,2.1-2.2h11.8c1.5,0,2.1,0.7,2.1,2.2v62.6c0,1.5-0.6,2.2-2.1,2.2h-11.8
			c-1.5,0-2.1-0.7-2.1-2.2V264.1z"/>
		<path class="st0" d="M272.6,349.3c-1.1,2.2-1.9,2.6-4.1,2.6h-12.2c-1.8,0-2.3-1.2-1.6-2.6l11.9-23.5c0.3-0.6,0.4-1.1,0.4-1.4
			c0-0.5-0.1-0.9-0.3-1.2l-19.1-39.5c-0.6-1.2-0.1-2.5,1.9-2.5h11.8c2.2,0,3.1,0.5,4.1,2.7l9.3,19.4c0.6,1.2,2.1,1.2,2.7,0l9.3-19.4
			c1.1-2.2,1.9-2.7,4.1-2.7h12.1c2,0,2.2,1.3,1.6,2.6L272.6,349.3z"/>
		<path class="st0" d="M319.2,281.1c1.6,0,2.6,0.1,3.3,1.2c0.9,1.5,1.8,1.1,3.4,0.4c2.6-1.3,5.5-2.6,9.9-2.6c3.6,0,7.7,0.8,10.8,3.8
			c1,1,1.7,0.9,3.1,0c3.9-2.6,8-3.8,13.7-3.8c9.5,0,16.1,5.7,16.1,18.9v27.8c0,1.5-0.6,2.2-2.1,2.2h-11.8c-1.5,0-2.1-0.7-2.1-2.2
			v-21.8c0-4.2-1.2-8.2-5.6-8.2c-4.1,0-5.9,3.6-5.9,8.2v21.8c0,1.5-0.6,2.2-2.1,2.2h-11.8c-1.5,0-2.1-0.7-2.1-2.2v-21.8
			c0-4.2-1.2-8.2-5.6-8.2c-4.1,0-5.9,3.6-5.9,8.2v21.8c0,1.5-0.6,2.2-2.1,2.2h-11.8c-1.5,0-2.1-0.7-2.1-2.2v-43.5
			c0-1.5,0.6-2.2,2.1-2.2H319.2z"/>
		<path class="st0" d="M482.5,299.1v27.7c0,1.5-0.6,2.2-2.1,2.2h-11.8c-1.5,0-2.1-0.7-2.1-2.2v-21.8c0-4.2-1.2-8.2-5.6-8.2
			c-4.1,0-5.9,3.6-5.9,8.2v21.8c0,1.5-0.6,2.2-2.1,2.2H441c-1.5,0-2.1-0.7-2.1-2.2v-43.5c0-1.5,0.6-2.2,2.1-2.2h8.9
			c2.2,0,2.7,0.3,3.4,1.5c0.3,0.5,0.8,0.8,1.2,0.8c0.6,0,1.5-0.5,2.3-0.9c2.2-1.1,5.1-2.4,9.5-2.4
			C475.8,280.1,482.5,285.8,482.5,299.1z"/>
		<path class="st0" d="M489,296.8c-1.5,0-2.2-0.6-2.2-2.1v-11.6c0-1.5,0.6-2.1,2.2-2.1h5.5c1.5,0,2.1-0.7,2.1-2.2v-14.7
			c0-1.5,0.6-2.2,2.1-2.2h11.8c1.5,0,2.1,0.7,2.1,2.2v14.7c0,1.5,0.6,2.2,2.1,2.2h10.9c1.5,0,2.2,0.6,2.2,2.1v11.6
			c0,1.5-0.7,2.1-2.2,2.1h-10.9c-1.5,0-2.1,0.7-2.1,2.2v27.7c0,1.5-0.6,2.2-2.1,2.2h-11.8c-1.5,0-2.1-0.7-2.1-2.2v-27.7
			c0-1.5-0.6-2.2-2.1-2.2H489z"/>
		<path class="st0" d="M408.8,280.1c-13.6,0-24.7,9.9-24.7,25.2c0,15.2,11.1,24.6,24.7,24.6c6.9,0,14.5-1.8,19.9-8.7
			c0.8-1,0.5-1.9-0.3-2.5l-7-5c-1.2-1-2.4-0.6-3.4,0.2c-2,1.6-4,2.6-6.8,2.6c-5.4-0.1-9-4.1-9-4.1c-1-1-1.1-2.5,0.7-2.5h28.3
			c1.5,0,2.1-0.7,2.1-2.2v-2.9C433.4,290,422.2,280.1,408.8,280.1z M418.3,300.6h-18c-2.5-0.1-2.1-2-0.9-3.5
			c2.4-2.7,6.2-3.9,9.9-3.9s7.5,1.2,9.9,3.9C420.5,298.6,420.9,300.5,418.3,300.6z"/>
		<path class="st0" d="M554.5,280.1c-13.6,0-24.7,9.9-24.7,25.2c0,15.2,11.1,24.6,24.7,24.6c6.9,0,14.5-1.8,19.9-8.7
			c0.8-1,0.5-1.9-0.3-2.5l-7-5c-1.2-1-2.4-0.6-3.4,0.2c-2,1.6-4,2.6-6.8,2.6c-5.4-0.1-9-4.1-9-4.1c-1-1-1.1-2.5,0.7-2.5H577
			c1.5,0,2.1-0.7,2.1-2.2v-2.9C579.1,290,567.9,280.1,554.5,280.1z M564,300.6h-18c-2.5-0.1-2.1-2-0.9-3.5c2.4-2.7,6.2-3.9,9.9-3.9
			c3.8,0,7.5,1.2,9.9,3.9C566.2,298.6,566.6,300.5,564,300.6z"/>
	</g>
	<path class="st0" d="M149,333.7c-0.5-0.7-1-1.6-1.1-2.2c0-0.5,0.2-1,0.7-1.3c0.7-0.5,1.6-0.9,1.9-1.5l0-0.7
		c0.6-29.4-6.6-49.5-17.4-63.3c-7-9.6-16.6-17.1-27.9-21.3c-16-7-32.3-8.1-41.7-8l-1.1,0l-0.7,0c-0.6,0.3-1,1.2-1.5,1.9
		c-0.3,0.5-0.8,0.7-1.3,0.7c-0.6-0.1-1.5-0.6-2.2-1.1c0,0-2-1.7-4.1-1.6l-2,0c-8.9,0.3-16.8,2-21.4,6.8c-0.1,0.1-0.2,0.2-0.2,0.3
		c-0.7,0.5-1.3,1-1.9,1.7c-1.2,1.2-2.1,2.7-2.8,4.3c-1.8,3.4-2.8,7.7-3.1,12.4l-0.1,1c-0.1,2.1,1.6,4.1,1.6,4.1
		c0.5,0.7,1,1.6,1.1,2.2c0,0.5-0.2,1-0.7,1.3c-0.7,0.5-1.6,0.9-1.9,1.5l0,0.7l0,1.9c-0.3,28.4,6.9,48,17.4,61.5
		c7,9.6,16.6,17.1,27.9,21.3c15.7,6.9,31.7,8,41.2,8l0.8,0l0.7,0c0.6-0.3,1-1.2,1.5-1.9c0.3-0.5,0.8-0.7,1.3-0.7
		c0.6,0,1.5,0.6,2.2,1.1c0,0,2,1.7,4.1,1.5l0.4,0c9.8-0.1,18.7-1.6,23.8-6.9c0.1-0.1,0.2-0.2,0.2-0.3c0.7-0.5,1.3-1,1.9-1.7
		c1.2-1.2,2.1-2.7,2.8-4.3c2-3.7,2.9-8.4,3.2-13.5C150.6,335.8,149,333.7,149,333.7z M126.7,334.2c-0.5,1.1-1.1,2-1.9,2.8
		c-0.4,0.4-0.8,0.8-1.3,1.1c-0.1,0.1-0.1,0.1-0.2,0.2c-3.7,3.8-10.3,4.7-17.5,4.6c0,0-0.8,0-2.1-0.1c-5.1,0.3-18.2,0.4-31-5.2
		c-7.5-2.8-13.9-7.8-18.6-14.2c-7.5-9.6-12.4-23.8-11.5-44.8c0-0.1,0-0.3,0-0.4c-0.3-4.7,0.3-9.1,2-12.4c0.5-1.1,1.1-2,1.9-2.8
		c0.4-0.4,0.8-0.8,1.3-1.1c0.1-0.1,0.1-0.1,0.2-0.2c3.7-3.8,10.3-4.7,17.5-4.6c0,0,0.8,0,2.1,0.1c5.1-0.3,18.2-0.4,31,5.2
		c7.5,2.8,13.9,7.8,18.6,14.2c7.5,9.6,12.4,23.8,11.5,44.8c0,0.1,0,0.3,0,0.4C129.1,326.5,128.5,330.9,126.7,334.2z"/>
	<path class="st1" d="M115.6,307.5c5.9,5.9,6.3,15.2,0.9,20.6c-5.5,5.5-14.7,5.1-20.6-0.9s10.2,0.6,15.7-4.9
		C117,316.9,109.6,301.5,115.6,307.5z"/>
</g>
</svg>
